<?xml version="1.0" standalone="no"?>
<!DOCTYPE svg PUBLIC "-//W3C//DTD SVG 20010904//EN"
 "http://www.w3.org/TR/2001/REC-SVG-20010904/DTD/svg10.dtd">
<svg version="1.0" xmlns="http://www.w3.org/2000/svg"
 width="700.000000pt" height="700.000000pt" viewBox="0 0 700.000000 700.000000"
 preserveAspectRatio="xMidYMid meet">
<metadata>
Created by potrace 1.11, written by Peter Selinger 2001-2013
</metadata>
<g transform="translate(0.000000,700.000000) scale(0.100000,-0.100000)"
fill="#000000" stroke="none">
<path d="M5260 6696 c-291 -63 -511 -274 -576 -552 -31 -135 -11 -353 41 -454
9 -18 15 -33 13 -34 -2 -2 -280 -35 -618 -75 l-616 -71 -1364 160 c-841 99
-1388 160 -1424 157 -52 -3 -63 -7 -91 -39 -18 -19 -35 -50 -38 -69 -12 -62
-587 -4678 -587 -4707 0 -33 33 -86 70 -114 26 -19 26 -19 1070 -138 195 -22
374 -43 396 -46 l42 -6 11 -126 c7 -70 14 -144 17 -165 8 -49 55 -104 102
-117 29 -7 217 11 911 91 l876 101 450 -52 c248 -28 643 -74 880 -101 236 -27
442 -47 458 -43 42 9 95 60 106 102 5 21 15 98 21 172 7 74 13 137 15 138 2 2
336 42 742 88 610 70 742 87 763 103 36 26 70 80 70 110 0 14 -132 1081 -294
2371 -217 1739 -297 2354 -310 2378 -9 18 -31 42 -49 53 -29 18 -43 20 -135
14 l-104 -6 8 43 c4 24 6 84 6 133 -4 317 -212 587 -527 685 -90 27 -246 35
-335 16z m-3690 -1256 c327 -39 603 -70 615 -71 58 -3 -77 -23 -440 -64 -504
-58 -494 -56 -539 -106 -33 -36 -36 -44 -36 -102 0 -34 85 -966 189 -2072 104
-1105 188 -2011 187 -2012 -2 -2 -56 4 -122 12 -65 8 -319 37 -564 65 -245 27
-468 53 -497 56 -50 6 -52 7 -47 33 2 14 123 982 269 2151 146 1169 267 2140
271 2159 l5 34 57 -7 c31 -4 325 -38 652 -76z m4575 58 c7 -32 544 -4343 541
-4345 -2 -2 -1615 -188 -2761 -318 -1100 -125 -1972 -225 -2006 -231 l-37 -5
-7 80 c-4 44 -7 97 -6 118 0 21 -4 65 -10 98 -16 92 -387 4069 -380 4076 3 4
377 50 831 103 1308 154 2162 255 2199 260 32 5 17 -12 -186 -217 -244 -245
-258 -266 -234 -346 13 -45 67 -96 111 -104 72 -15 86 -4 450 357 l345 341 82
-41 c262 -131 589 -85 801 112 67 61 77 67 130 74 111 14 131 12 137 -12z
m-1025 -4864 c0 -29 -3 -34 -17 -30 -10 2 -75 10 -145 17 -71 7 -126 15 -123
17 6 6 188 29 243 31 42 1 42 1 42 -35z"/>
</g>
</svg>
